<?xml version="1.0" encoding="UTF-8"?>
<svg width="14px" height="14px" viewBox="0 0 14 14" version="1.1" xmlns="http://www.w3.org/2000/svg" xmlns:xlink="http://www.w3.org/1999/xlink">
    <!-- Generator: Sketch 55.2 (78181) - https://sketchapp.com -->
    <title>ic-16-telegram</title>
    <desc>Created with Sketch.</desc>
    <g id="UI-Kit" stroke="none" stroke-width="1" fill="none" fill-rule="evenodd" opacity="0.5">
        <g id="000.-UI-kit" transform="translate(-1416.000000, -4716.000000)" fill="#252525" fill-rule="nonzero">
            <g id="Group-55" transform="translate(1383.000000, 4279.000000)">
                <g id="ic-16-telegram" transform="translate(32.000000, 436.000000)">
                    <path d="M10.7696448,10.6345955 L11.9766632,5.5479035 C12.0259295,5.3325927 11.9971913,5.17845206 11.8904476,5.08547695 C11.783704,4.99250184 11.6427497,4.9753751 11.4675806,5.03409622 L4.37326825,7.47835082 C4.21452126,7.53217852 4.10641072,7.59334544 4.04893336,7.66185342 C3.99145601,7.7303614 3.98461357,7.79519833 4.02840584,7.85636617 C4.07219811,7.91753401 4.15978134,7.96524421 4.29115815,7.9994982 L6.10579129,8.50596537 L10.3180393,6.13511181 C10.432994,6.06660383 10.5205772,6.05192377 10.5807916,6.09107118 C10.6191098,6.11553832 10.6081619,6.15223847 10.5479475,6.20117274 L7.14037851,8.95371171 L7.00900236,10.6272554 C7.13490514,10.6272554 7.25806905,10.5734285 7.3784978,10.4657731 L8.26528684,9.7024023 L10.104553,10.9135194 C10.4548912,11.0896828 10.6765862,10.9967091 10.7696448,10.6345955 Z M14.4453125,5.28125 C14.815106,6.14583766 15,7.05207859 15,8 C15,8.94792141 14.815106,9.85416234 14.4453125,10.71875 C14.075519,11.5833377 13.5781281,12.3281219 12.953125,12.953125 C12.3281219,13.5781281 11.5833377,14.075519 10.71875,14.4453125 C9.85416234,14.815106 8.94792141,15 8,15 C7.05207859,15 6.14583766,14.815106 5.28125,14.4453125 C4.41666234,14.075519 3.67187812,13.5781281 3.046875,12.953125 C2.42187188,12.3281219 1.92448102,11.5833377 1.5546875,10.71875 C1.18489398,9.85416234 1,8.94792141 1,8 C1,7.05207859 1.18489398,6.14583766 1.5546875,5.28125 C1.92448102,4.41666234 2.42187188,3.67187812 3.046875,3.046875 C3.67187812,2.42187188 4.41666234,1.92448102 5.28125,1.5546875 C6.14583766,1.18489398 7.05207859,1 8,1 C8.94792141,1 9.85416234,1.18489398 10.71875,1.5546875 C11.5833377,1.92448102 12.3281219,2.42187188 12.953125,3.046875 C13.5781281,3.67187812 14.075519,4.41666234 14.4453125,5.28125 Z" id="shape"></path>
                </g>
            </g>
        </g>
    </g>
</svg>