<?xml version="1.0" encoding="UTF-8"?>
<svg width="12px" height="12px" viewBox="0 0 12 12" version="1.1" xmlns="http://www.w3.org/2000/svg" xmlns:xlink="http://www.w3.org/1999/xlink">
    <!-- Generator: Sketch 55.2 (78181) - https://sketchapp.com -->
    <title>ic-16-alarm</title>
    <desc>Created with Sketch.</desc>
    <g id="UI-Kit" stroke="none" stroke-width="1" fill="none" fill-rule="evenodd">
        <g id="000.-UI-kit" transform="translate(-978.000000, -4582.000000)" fill="#FFFFFF" fill-rule="nonzero">
            <g id="Group-50" transform="translate(200.000000, 4279.000000)">
                <g id="Group-49" transform="translate(735.000000, 44.000000)">
                    <g id="Group-11" transform="translate(24.000000, 250.000000)">
                        <g id="ic-16-alarm" transform="translate(17.000000, 7.000000)">
                            <path d="M8.86393289,11.2075893 L8.86393289,9.93526786 C8.86393289,9.87276754 8.84272775,9.82031271 8.80031682,9.77790179 C8.7579059,9.73549086 8.70768318,9.71428571 8.64964718,9.71428571 L7.36393289,9.71428571 C7.30589689,9.71428571 7.25567418,9.73549086 7.21326325,9.77790179 C7.17085232,9.82031271 7.14964718,9.87276754 7.14964718,9.93526786 L7.14964718,11.2075893 C7.14964718,11.2700896 7.17085232,11.3225444 7.21326325,11.3649554 C7.25567418,11.4073663 7.30589689,11.4285714 7.36393289,11.4285714 L8.64964718,11.4285714 C8.70768318,11.4285714 8.7579059,11.4073663 8.80031682,11.3649554 C8.84272775,11.3225444 8.86393289,11.2700896 8.86393289,11.2075893 Z M8.85054004,8.703125 L8.97107575,5.62946429 C8.97107575,5.57589259 8.94875455,5.5334823 8.90411146,5.50223214 C8.84607546,5.45312475 8.79250457,5.42857143 8.74339718,5.42857143 L7.27018289,5.42857143 C7.22107551,5.42857143 7.16750461,5.45312475 7.10946861,5.50223214 C7.06482553,5.5334823 7.04250432,5.58035683 7.04250432,5.64285714 L7.15634361,8.703125 C7.15634361,8.74776808 7.17866481,8.78459807 7.22330789,8.81361607 C7.26795097,8.84263407 7.32152187,8.85714286 7.38402218,8.85714286 L8.62286146,8.85714286 C8.68536178,8.85714286 8.73781661,8.84263407 8.78022754,8.81361607 C8.82263846,8.78459807 8.84607573,8.74776808 8.85054004,8.703125 Z M8.75679004,2.44866071 L13.8996472,11.8772321 C14.055898,12.1584835 14.0514337,12.4397307 13.8862543,12.7209821 C13.8103611,12.8504471 13.7065675,12.9531246 13.5748704,13.0290179 C13.4431733,13.1049111 13.3014337,13.1428571 13.1496472,13.1428571 L2.86393289,13.1428571 C2.71214642,13.1428571 2.57040677,13.1049111 2.43870968,13.0290179 C2.30701259,12.9531246 2.20321899,12.8504471 2.12732575,12.7209821 C1.96214635,12.4397307 1.95768211,12.1584835 2.11393289,11.8772321 L7.25679004,2.44866071 C7.33268327,2.31026717 7.43759294,2.20089326 7.57152218,2.12053571 C7.70545142,2.04017817 7.85053926,2 8.00679004,2 C8.16304082,2 8.30812865,2.04017817 8.44205789,2.12053571 C8.57598713,2.20089326 8.6808968,2.31026717 8.75679004,2.44866071 Z" id="ï±"></path>
                        </g>
                    </g>
                </g>
            </g>
        </g>
    </g>
</svg>