<?xml version="1.0" encoding="UTF-8"?>
<svg width="15px" height="12px" viewBox="0 0 15 12" version="1.1" xmlns="http://www.w3.org/2000/svg" xmlns:xlink="http://www.w3.org/1999/xlink">
    <!-- Generator: Sketch 55.2 (78181) - https://sketchapp.com -->
    <title>ic-16-pass-unvisible</title>
    <desc>Created with Sketch.</desc>
    <g id="UI-Kit" stroke="none" stroke-width="1" fill="none" fill-rule="evenodd">
        <g id="000.-UI-kit" transform="translate(-1415.000000, -4645.000000)" fill="#252525" fill-rule="nonzero">
            <g id="Group-55" transform="translate(1383.000000, 4279.000000)">
                <g id="ic-16-pass-unvisible" transform="translate(32.000000, 364.000000)">
                    <path d="M14.8595685,13.0390362 C14.9373194,13.1011775 15.000422,13.232418 15.000422,13.3319585 C15.000422,13.4047198 14.9634577,13.509845 14.9179332,13.5666076 L14.6835587,13.8593467 C14.6213946,13.9369604 14.4902685,13.9999714 14.3908196,13.9999714 C14.3181726,13.9999714 14.2131619,13.9631215 14.1564451,13.9177115 L0.140853546,2.96093521 C0.0631025717,2.89879394 0,2.76755341 0,2.66801293 C0,2.59525157 0.0369643284,2.49012639 0.082488817,2.43336383 L0.316863258,2.14062466 C0.379027417,2.06301102 0.510153508,2 0.609602428,2 C0.68224935,2 0.787260086,2.03684989 0.84397687,2.08225994 L14.8595685,13.0390362 Z M7,5.06869918 C7.1409962,5.03113059 7.3724108,5.00032597 7.51658033,5 C8.8626843,5 9.95059591,6.33269346 10,8 L7,5.06869918 Z M8,10.9315663 C7.8590038,10.9689481 7.62756747,10.9996197 7.48341967,11 C6.13755479,11 5.04964318,9.66718586 5,8 L8,10.9315663 Z M7.39805871,4.19275743 C6.94242286,4.19275743 6.49777669,4.26233009 6.06369496,4.36917642 L5,3.46740114 C5.7545063,3.17394379 6.55691065,3 7.39805871,3 C10.2155388,3 12.6761783,4.77894412 13.920252,7.40824236 C13.9642555,7.50263987 14,7.66512977 14,7.77090837 C14,7.87668697 13.9642555,8.03917687 13.920252,8.13357438 C13.6516424,8.69913437 13.1084695,9.53529247 12.7078044,10 L11.8428193,9.26695116 C12.1713238,8.8938262 12.6231099,8.22365242 12.8512748,7.77102971 C11.7318927,5.55945864 9.65907079,4.19275743 7.39805871,4.19275743 Z M7.60157148,11.8072012 C8.05750146,11.8072012 8.50199233,11.7376261 8.936141,11.6310188 L10,12.5325827 C9.24537735,12.8248125 8.44284925,13 7.60157148,13 C4.78388079,13 2.32286179,11.2209942 1.07976032,8.59160481 C1.03572761,8.49720403 1,8.33470849 1,8.22892623 C1,8.12314397 1.03572761,7.96064843 1.07976032,7.86624765 C1.3483442,7.30074085 1.89148895,6.46467511 2.29214858,6 L3.15726715,6.73307425 C2.82839853,7.10609081 2.37602788,7.77616649 2.14751444,8.22880489 C3.26729297,10.4404526 5.34021072,11.8072012 7.60157148,11.8072012 Z" id="shape"></path>
                </g>
            </g>
        </g>
    </g>
</svg>