<?xml version="1.0" encoding="UTF-8"?>
<svg width="10px" height="10px" viewBox="0 0 10 10" version="1.1" xmlns="http://www.w3.org/2000/svg" xmlns:xlink="http://www.w3.org/1999/xlink">
    <!-- Generator: Sketch 55.2 (78181) - https://sketchapp.com -->
    <title>ic-16-add</title>
    <desc>Created with Sketch.</desc>
    <g id="UI-Kit" stroke="none" stroke-width="1" fill="none" fill-rule="evenodd">
        <g id="000.-UI-kit" transform="translate(-1482.000000, -4682.000000)" fill="#FFFFFF" fill-rule="nonzero">
            <g id="Group-55" transform="translate(1383.000000, 4279.000000)">
                <g id="ic-16-add" transform="translate(96.000000, 400.000000)">
                    <path d="M12.5,7.38636364 L12.5,8.61363636 C12.5,8.78409176 12.4403415,8.92897668 12.3210227,9.04829545 C12.2017039,9.16761423 12.056819,9.22727273 11.8863636,9.22727273 L9.22727273,9.22727273 L9.22727273,11.8863636 C9.22727273,12.056819 9.16761423,12.2017039 9.04829545,12.3210227 C8.92897668,12.4403415 8.78409176,12.5 8.61363636,12.5 L7.38636364,12.5 C7.21590824,12.5 7.07102332,12.4403415 6.95170455,12.3210227 C6.83238577,12.2017039 6.77272727,12.056819 6.77272727,11.8863636 L6.77272727,9.22727273 L4.11363636,9.22727273 C3.94318097,9.22727273 3.79829605,9.16761423 3.67897727,9.04829545 C3.55965849,8.92897668 3.5,8.78409176 3.5,8.61363636 L3.5,7.38636364 C3.5,7.21590824 3.55965849,7.07102332 3.67897727,6.95170455 C3.79829605,6.83238577 3.94318097,6.77272727 4.11363636,6.77272727 L6.77272727,6.77272727 L6.77272727,4.11363636 C6.77272727,3.94318097 6.83238577,3.79829605 6.95170455,3.67897727 C7.07102332,3.55965849 7.21590824,3.5 7.38636364,3.5 L8.61363636,3.5 C8.78409176,3.5 8.92897668,3.55965849 9.04829545,3.67897727 C9.16761423,3.79829605 9.22727273,3.94318097 9.22727273,4.11363636 L9.22727273,6.77272727 L11.8863636,6.77272727 C12.056819,6.77272727 12.2017039,6.83238577 12.3210227,6.95170455 C12.4403415,7.07102332 12.5,7.21590824 12.5,7.38636364 Z" id="shape"></path>
                </g>
            </g>
        </g>
    </g>
</svg>