<?xml version="1.0" encoding="UTF-8"?>
<svg width="14px" height="11px" viewBox="0 0 14 11" version="1.1" xmlns="http://www.w3.org/2000/svg" xmlns:xlink="http://www.w3.org/1999/xlink">
    <!-- Generator: Sketch 55.2 (78181) - https://sketchapp.com -->
    <title>ic-16-mail</title>
    <desc>Created with Sketch.</desc>
    <g id="UI-Kit" stroke="none" stroke-width="1" fill="none" fill-rule="evenodd" opacity="0.5">
        <g id="000.-UI-kit" transform="translate(-1480.000000, -4718.000000)" fill="#252525" fill-rule="nonzero">
            <g id="Group-55" transform="translate(1383.000000, 4279.000000)">
                <g id="ic-16-mail" transform="translate(96.000000, 436.000000)">
                    <path d="M14,12.76 L14,7 C13.8333325,7.1800009 13.6536468,7.34499925 13.4609375,7.495 C12.0650972,8.52500515 10.9557333,9.3699967 10.1328125,10.03 C9.86718617,10.2450011 9.6510425,10.4124994 9.484375,10.5325 C9.3177075,10.6525006 9.09244934,10.7737494 8.80859375,10.89625 C8.52473816,11.0187506 8.25781375,11.08 8.0078125,11.08 L7.9921875,11.08 C7.74218625,11.08 7.47526184,11.0187506 7.19140625,10.89625 C6.90755066,10.7737494 6.6822925,10.6525006 6.515625,10.5325 C6.3489575,10.4124994 6.13281383,10.2450011 5.8671875,10.03 C5.04426672,9.3699967 3.93490281,8.52500515 2.5390625,7.495 C2.3463532,7.34499925 2.1666675,7.1800009 2,7 L2,12.76 C2,12.8250003 2.02473934,12.8812498 2.07421875,12.92875 C2.12369816,12.9762502 2.18229133,13 2.25,13 L13.75,13 C13.8177087,13 13.8763018,12.9762502 13.9257812,12.92875 C13.9752607,12.8812498 14,12.8250003 14,12.76 Z M14,4.5390625 L14,4.34765625 C14,4.32421863 13.9986979,4.2903648 13.9960938,4.24609375 C13.9934896,4.2018227 13.9856771,4.16927094 13.9726562,4.1484375 C13.9596354,4.12760406 13.9453126,4.1041668 13.9296875,4.078125 C13.9140624,4.0520832 13.8906252,4.03255215 13.859375,4.01953125 C13.8281248,4.00651035 13.7916669,4 13.75,4 L2.25,4 C2.18229133,4 2.12369816,4.02473934 2.07421875,4.07421875 C2.02473934,4.12369816 2,4.18229133 2,4.25 C2,5.12500438 2.38280867,5.86458031 3.1484375,6.46875 C4.15365086,7.26042062 5.19791125,8.0859332 6.28125,8.9453125 C6.31250016,8.9713543 6.40364508,9.04817645 6.5546875,9.17578125 C6.70572992,9.30338605 6.82552039,9.40104133 6.9140625,9.46875 C7.00260461,9.53645867 7.11848887,9.6184891 7.26171875,9.71484375 C7.40494863,9.8111984 7.53645773,9.88281227 7.65625,9.9296875 C7.77604227,9.97656273 7.88802031,10 7.9921875,10 L8.0078125,10 C8.11197969,10 8.22395773,9.97656273 8.34375,9.9296875 C8.46354227,9.88281227 8.59505137,9.8111984 8.73828125,9.71484375 C8.88151113,9.6184891 8.99739539,9.53645867 9.0859375,9.46875 C9.17447961,9.40104133 9.29427008,9.30338605 9.4453125,9.17578125 C9.59635492,9.04817645 9.68749984,8.9713543 9.71875,8.9453125 C10.8020887,8.0859332 11.8463491,7.26042062 12.8515625,6.46875 C13.1328139,6.24479055 13.39453,5.9440123 13.6367188,5.56640625 C13.8789075,5.1888002 14,4.8463557 14,4.5390625 Z M15,4.25 L15,12.75 C15,13.0937517 14.8776054,13.3880196 14.6328125,13.6328125 C14.3880196,13.8776054 14.0937517,14 13.75,14 L2.25,14 C1.90624828,14 1.61198039,13.8776054 1.3671875,13.6328125 C1.12239461,13.3880196 1,13.0937517 1,12.75 L1,4.25 C1,3.90624828 1.12239461,3.61198039 1.3671875,3.3671875 C1.61198039,3.12239461 1.90624828,3 2.25,3 L13.75,3 C14.0937517,3 14.3880196,3.12239461 14.6328125,3.3671875 C14.8776054,3.61198039 15,3.90624828 15,4.25 Z" id="shape"></path>
                </g>
            </g>
        </g>
    </g>
</svg>