<?xml version="1.0" encoding="UTF-8"?>
<svg width="10px" height="12px" viewBox="0 0 10 12" version="1.1" xmlns="http://www.w3.org/2000/svg" xmlns:xlink="http://www.w3.org/1999/xlink">
    <!-- Generator: Sketch 55.2 (78181) - https://sketchapp.com -->
    <title>ic-16-excel</title>
    <desc>Created with Sketch.</desc>
    <g id="UI-Kit" stroke="none" stroke-width="1" fill="none" fill-rule="evenodd">
        <g id="004a.-Hard-table-+-inputs" transform="translate(-1177.000000, -44.000000)" fill="#0077FF" fill-rule="nonzero">
            <g id="Меню-сверху" transform="translate(298.000000, 28.000000)">
                <g id="btn" transform="translate(811.000000, 6.000000)">
                    <g id="Stacked-Group" transform="translate(20.000000, 8.000000)">
                        <g id="ic-16-excel" transform="translate(45.000000, 0.000000)">
                            <path d="M12.5480303,4.54464286 C12.6730309,4.66964348 12.7801727,4.83928464 12.8694589,5.05357143 C12.958745,5.26785821 13.0033875,5.46428482 13.0033875,5.64285714 L13.0033875,13.3571429 C13.0033875,13.5357152 12.9408881,13.6874994 12.8158875,13.8125 C12.6908868,13.9375006 12.5391026,14 12.3605303,14 L3.64285714,14 C3.46428482,14 3.31250063,13.9375006 3.1875,13.8125 C3.06249937,13.6874994 3,13.5357152 3,13.3571429 L3,2.64285714 C3,2.46428482 3.06249937,2.31250062 3.1875,2.1875 C3.31250063,2.06249937 3.46428482,2 3.64285714,2 L9.36053031,2 C9.53910263,2 9.73552924,2.04464241 9.94981602,2.13392857 C10.1641028,2.22321473 10.333744,2.33035652 10.4587446,2.45535714 L12.5480303,4.54464286 Z M9.57481602,2.91071429 L9.57481602,5.42857143 L12.0926732,5.42857143 C12.0480301,5.2991065 11.9989234,5.20758955 11.9453517,5.15401786 L9.84936959,3.05803571 C9.7957979,3.00446402 9.70428096,2.95535737 9.57481602,2.91071429 Z M12.1462446,13.1428571 L12.1462446,6.28571429 L9.36053031,6.28571429 C9.18195799,6.28571429 9.03017379,6.22321491 8.90517317,6.09821429 C8.78017254,5.97321366 8.71767317,5.82142946 8.71767317,5.64285714 L8.71767317,2.85714286 L3.85714286,2.85714286 L3.85714286,13.1428571 L12.1462446,13.1428571 Z M6.328125,11.5758929 L7.62723214,9.68080357 L6.36160714,7.859375 L5.90625,7.859375 L5.90625,7.14285714 L7.84821429,7.14285714 L7.84821429,7.859375 L7.33928571,7.859375 L8.04910714,8.92410714 C8.09821453,8.97767884 8.13616058,9.02901761 8.16294643,9.078125 C8.18080366,9.10491085 8.19196426,9.12723205 8.19642857,9.14508929 L8.20982143,9.14508929 L8.22321429,9.125 C8.23660721,9.10714277 8.25669629,9.07700914 8.28348214,9.03459821 C8.31026799,8.99218729 8.3325892,8.9553573 8.35044643,8.92410714 L9.04017857,7.859375 L8.54464286,7.859375 L8.54464286,7.14285714 L10.4129464,7.14285714 L10.4129464,7.859375 L9.96428571,7.859375 L8.65848214,9.74776786 L9.94419643,11.5758929 L10.3995536,11.5758929 L10.3995536,12.2857143 L8.45089286,12.2857143 L8.45089286,11.5758929 L8.95982143,11.5758929 L8.24330357,10.4977679 C8.22991065,10.4799106 8.21540186,10.4609376 8.19977679,10.4408482 C8.18415171,10.4207588 8.17075898,10.4029019 8.15959821,10.3872768 C8.14843744,10.3716517 8.1383929,10.3549108 8.12946429,10.3370536 C8.11160705,10.3102677 8.10044645,10.2879465 8.09598214,10.2700893 L8.08258929,10.2700893 C8.07812498,10.2700893 8.07031256,10.2790178 8.05915179,10.296875 C8.04799102,10.3147322 8.03125011,10.3448659 8.00892857,10.3872768 C7.98660703,10.4296877 7.96428583,10.4665177 7.94196429,10.4977679 L7.25223214,11.5758929 L7.75446429,11.5758929 L7.75446429,12.2857143 L5.87276786,12.2857143 L5.87276786,11.5758929 L6.328125,11.5758929 Z" id="ex"></path>
                        </g>
                    </g>
                </g>
            </g>
        </g>
    </g>
</svg>