<?xml version="1.0" encoding="UTF-8"?>
<svg width="24px" height="23px" viewBox="0 0 24 23" version="1.1" xmlns="http://www.w3.org/2000/svg" xmlns:xlink="http://www.w3.org/1999/xlink">
    <!-- Generator: Sketch 55.2 (78181) - https://sketchapp.com -->
    <title>ic-24-status-flight</title>
    <desc>Created with Sketch.</desc>
    <defs>
        <linearGradient x1="22.281901%" y1="59.4456834%" x2="116.617839%" y2="24.2017663%" id="linearGradient-1">
            <stop stop-color="#0077FF" offset="0%"></stop>
            <stop stop-color="#7DE8FF" offset="100%"></stop>
        </linearGradient>
    </defs>
    <g id="UI-Kit" stroke="none" stroke-width="1" fill="none" fill-rule="evenodd">
        <g id="000.-UI-kit" transform="translate(-1553.000000, -4488.000000)">
            <g id="Group-55" transform="translate(1383.000000, 4279.000000)">
                <g id="ic-24-status-flight" transform="translate(170.000000, 208.000000)">
                    <path d="M3.10015742,19.0440895 C1.24988392,19.0440895 0,17.6559449 0,15.4255591 L0,13.7258786 C0,11.4549554 1.423906,10 3.6613538,10 C5.86868727,10 7.28650138,11.4611129 7.28650138,13.7258786 L7.28650138,20.4172524 C7.28650138,22.6195443 5.89572939,24 3.67945691,24 C1.45691231,24 0.108618654,22.6850865 0.108618654,20.4888179 L0.108618654,19.4018157 L3.08658009,19.2575445 L3.08658009,20.2920128 C3.08658009,20.954795 3.22645335,21.1284345 3.64325069,21.1284345 C4.08095033,21.1284345 4.23612751,20.9572395 4.23612751,20.399361 L4.23612751,18.8368426 C3.89729413,18.9704912 3.51364035,19.0440895 3.10015742,19.0440895 Z M3.64325069,16.172524 C4.04686836,16.172524 4.23612751,15.9403295 4.23612751,15.3003195 L4.23612751,13.74377 C4.23612751,13.10376 4.04686836,12.8715655 3.64325069,12.8715655 C3.23963302,12.8715655 3.05037387,13.10376 3.05037387,13.74377 L3.05037387,15.3003195 C3.05037387,15.9403295 3.23963302,16.172524 3.64325069,16.172524 Z M12.0023613,15.1631574 C12.3411947,15.0295088 12.7248484,14.9559105 13.1383314,14.9559105 C14.9886049,14.9559105 16.2384888,16.3440551 16.2384888,18.5744409 L16.2384888,20.2741214 C16.2384888,22.5450446 14.8145828,24 12.577135,24 C10.3698015,24 8.95198741,22.5388871 8.95198741,20.2741214 L8.95198741,13.5827476 C8.95198741,11.3804557 10.3427594,10 12.5590319,10 C14.7815765,10 16.1298701,11.3149135 16.1298701,13.5111821 L16.1298701,14.5981843 L13.1519087,14.7424555 L13.1519087,13.7079872 C13.1519087,13.045205 13.0120354,12.8715655 12.5952381,12.8715655 C12.1575385,12.8715655 12.0023613,13.0427605 12.0023613,13.600639 L12.0023613,15.1631574 Z M12.5952381,17.827476 C12.1916204,17.827476 12.0023613,18.0596705 12.0023613,18.6996805 L12.0023613,20.25623 C12.0023613,20.89624 12.1916204,21.1284345 12.5952381,21.1284345 C12.9988558,21.1284345 13.1881149,20.89624 13.1881149,20.25623 L13.1881149,18.6996805 C13.1881149,18.0596705 12.9988558,17.827476 12.5952381,17.827476 Z M17.3065722,14.1955272 L17.3065722,11.7914297 L17.8324602,11.7547424 C19.2794008,11.6538 20.2957161,11.1818397 20.5721515,10.5236706 L20.7169517,10.1789137 L23,10.1789137 L23,23.8210863 L19.9496261,23.8210863 L19.9496261,14.1955272 L17.3065722,14.1955272 Z" id="961" fill="url(#linearGradient-1)" fill-rule="nonzero" opacity="0.5"></path>
                    <path d="M9.44164064,8.7884507 L3.6984631,2.3653742 L4.25934285,2.16123066 C5.68665946,1.6417299 7.27273585,1.79920535 8.57003541,2.58922282 L15.2677349,6.66792582 L18.0286422,5.66303773 C19.0505238,5.29110325 20.1542762,5.20388478 21.2218911,5.41070733 L22.4525827,5.64912173 C22.8904344,5.73394408 23.1766212,6.1576551 23.0917989,6.59550679 C23.0378504,6.87398819 22.8417454,7.10374477 22.5751932,7.2007618 L4.64160682,13.7280535 C3.60365101,14.1058385 2.45596631,13.5706643 2.07818129,12.5327085 L0.368080573,7.8342454 L1.24561913,7.51484748 C1.57567419,7.39471726 1.94455674,7.45655336 2.21739537,7.67774716 L5.40132944,10.2590037 L9.44164064,8.7884507 Z" id="Path" fill="#0077FF"></path>
                </g>
            </g>
        </g>
    </g>
</svg>