<?xml version="1.0" encoding="UTF-8"?>
<svg width="20px" height="22px" viewBox="0 0 20 22" version="1.1" xmlns="http://www.w3.org/2000/svg" xmlns:xlink="http://www.w3.org/1999/xlink">
    <!-- Generator: Sketch 55.2 (78181) - https://sketchapp.com -->
    <title>ic-24-modular-system</title>
    <desc>Created with Sketch.</desc>
    <defs>
        <linearGradient x1="29.6356824%" y1="75.4937066%" x2="98.9437181%" y2="-19.6289062%" id="linearGradient-1">
            <stop stop-color="#0077FF" offset="0%"></stop>
            <stop stop-color="#7DE8FF" offset="100%"></stop>
        </linearGradient>
    </defs>
    <g id="UI-Kit" stroke="none" stroke-width="1" fill="none" fill-rule="evenodd">
        <g id="000.-UI-kit" transform="translate(-1554.000000, -4448.000000)">
            <g id="Group-55" transform="translate(1383.000000, 4279.000000)">
                <g id="ic-24-modular-system" transform="translate(169.000000, 168.000000)">
                    <path d="M13,13 L20,13 L20,3 L13,3 L13,7 L13,13 Z M4,11 L4,21 L11,21 L11,11 L4,11 Z M13,21 L20,21 L20,15 L13,15 L13,21 Z M2,1 L22,1 L22,23 L2,23 L2,1 Z M4,3 L4,9 L11,9 L11,3 L4,3 Z" id="Combined-Shape" fill="#0077FF" fill-rule="nonzero"></path>
                    <rect id="Rectangle" fill="url(#linearGradient-1)" opacity="0.400000006" x="8" y="7" width="12" height="14"></rect>
                </g>
            </g>
        </g>
    </g>
</svg>