<?xml version="1.0" encoding="UTF-8"?>
<svg width="23px" height="17px" viewBox="0 0 23 17" version="1.1" xmlns="http://www.w3.org/2000/svg" xmlns:xlink="http://www.w3.org/1999/xlink">
    <!-- Generator: Sketch 55.2 (78181) - https://sketchapp.com -->
    <title>ic-24-status-packages</title>
    <desc>Created with Sketch.</desc>
    <defs>
        <linearGradient x1="22.281901%" y1="75.4937066%" x2="116.617839%" y2="-19.6289062%" id="linearGradient-1">
            <stop stop-color="#0077FF" offset="0%"></stop>
            <stop stop-color="#7DE8FF" offset="100%"></stop>
        </linearGradient>
        <circle id="path-2" cx="20" cy="7" r="4"></circle>
    </defs>
    <g id="UI-Kit" stroke="none" stroke-width="1" fill="none" fill-rule="evenodd">
        <g id="000.-UI-kit" transform="translate(-1633.000000, -4450.000000)" fill-rule="nonzero">
            <g id="Group-55" transform="translate(1383.000000, 4279.000000)">
                <g id="ic-24-status-packages" transform="translate(249.000000, 168.000000)">
                    <path d="M14.0829584,8 L4,8 C3.89226004,8 3.78849962,8.01703842 3.69126627,8.04856774 L10.3860594,13.2556291 C10.7471699,13.5364928 11.2528301,13.5364928 11.6139406,13.2556291 L15.1371373,10.515365 C15.5341288,11.0635747 16.0215505,11.5420126 16.5775167,11.9287931 L12.8418218,14.8343335 C11.7584904,15.6769246 10.2415096,15.6769246 9.15817816,14.8343335 L3,10.0446394 L3,17 C3,17.5522847 3.44771525,18 4,18 L18,18 C18.5522847,18 19,17.5522847 19,17 L19,12.9170416 C19.3252085,12.9716012 19.6592878,13 20,13 C20.3407122,13 20.6747915,12.9716012 21,12.9170416 L21,17 C21,18.6568542 19.6568542,20 18,20 L4,20 C2.34314575,20 1,18.6568542 1,17 L1,9 C1,7.34314575 2.34314575,6 4,6 L14.0829584,6 C14.0283988,6.32520847 14,6.65928779 14,7 C14,7.34071221 14.0283988,7.67479153 14.0829584,8 Z" id="Combined-Shape" fill="#0077FF"></path>
                    <g id="Oval" opacity="0.5">
                        <use fill="#252525" xlink:href="#path-2"></use>
                        <use fill="url(#linearGradient-1)" xlink:href="#path-2"></use>
                    </g>
                </g>
            </g>
        </g>
    </g>
</svg>