<?xml version="1.0" encoding="UTF-8"?>
<svg width="24px" height="24px" viewBox="0 0 24 24" version="1.1" xmlns="http://www.w3.org/2000/svg" xmlns:xlink="http://www.w3.org/1999/xlink">
    <!-- Generator: Sketch 55.2 (78181) - https://sketchapp.com -->
    <title>ic-24-providers-type</title>
    <desc>Created with Sketch.</desc>
    <defs>
        <linearGradient x1="89.732511%" y1="50%" x2="0%" y2="28.4462206%" id="linearGradient-1">
            <stop stop-color="#0077FF" offset="0%"></stop>
            <stop stop-color="#7DE8FF" offset="100%"></stop>
        </linearGradient>
    </defs>
    <g id="UI-Kit" stroke="none" stroke-width="1" fill="none" fill-rule="evenodd">
        <g id="000.-UI-kit" transform="translate(-1512.000000, -4327.000000)">
            <g id="Group-55" transform="translate(1383.000000, 4279.000000)">
                <g id="ic-24-providers-type" transform="translate(129.000000, 48.000000)">
                    <path d="M16.5278183,3.81006694 C17.0075153,3.42374993 17.4129235,2.40101009 17.9673779,0.319683377 L18.0497687,0.0104120917 C18.7785634,-2.71994248 19.2744416,-3.92144323 20.3845938,-4.78821016 L21.6154062,-3.21178984 C20.9955698,-2.7278439 20.5854512,-1.73413661 19.9821151,0.526200045 L19.8999786,0.834517901 C19.3265821,2.98695 18.841716,4.359524 18.1364338,5.14441477 L19.2289439,11.6495267 L8.52088615,22.1517505 L-0.338348244,12.8344009 L10.3705415,2.33136108 L16.5278183,3.81006694 Z M16,5.74017468 L10.9803275,4.53467111 L2.46799174,12.8833798 L8.57062994,19.3015884 L17.0837976,10.9520637 L16.2510064,5.99339089 C16.1695213,5.99781923 16.0858883,6 16,6 L16,5.74017468 Z M13.5,10 C12.6715729,10 12,9.32842712 12,8.5 C12,7.67157288 12.6715729,7 13.5,7 C14.3284271,7 15,7.67157288 15,8.5 C15,9.32842712 14.3284271,10 13.5,10 Z" id="Combined-Shape" fill="#0077FF" fill-rule="nonzero"></path>
                    <path d="M19.654548,10.7610631 L24.1281148,15.0983221 L21.8532308,20.7397529 L9.32679754,23.7610631 L8.26982102,18.9639905 L7.12811477,13.7823732 L19.654548,10.7610631 Z M18.5,18 C19.3284271,18 20,17.3284271 20,16.5 C20,15.6715729 19.3284271,15 18.5,15 C17.6715729,15 17,15.6715729 17,16.5 C17,17.3284271 17.6715729,18 18.5,18 Z" id="Combined-Shape" fill="url(#linearGradient-1)" opacity="0.400000006"></path>
                </g>
            </g>
        </g>
    </g>
</svg>