<?xml version="1.0" encoding="UTF-8"?>
<svg width="24px" height="20px" viewBox="0 0 24 20" version="1.1" xmlns="http://www.w3.org/2000/svg" xmlns:xlink="http://www.w3.org/1999/xlink">
    <!-- Generator: Sketch 55.2 (78181) - https://sketchapp.com -->
    <title>ic-24-aviapark</title>
    <desc>Created with Sketch.</desc>
    <defs>
        <linearGradient x1="88.0474678%" y1="39.5563357%" x2="-23.7682497%" y2="50%" id="linearGradient-1">
            <stop stop-color="#0077FF" offset="0%"></stop>
            <stop stop-color="#7DE8FF" offset="100%"></stop>
        </linearGradient>
        <linearGradient x1="88.0474678%" y1="40.6845093%" x2="-23.7682497%" y2="50%" id="linearGradient-2">
            <stop stop-color="#0077FF" offset="0%"></stop>
            <stop stop-color="#7DE8FF" offset="100%"></stop>
        </linearGradient>
    </defs>
    <g id="UI-Kit" stroke="none" stroke-width="1" fill="none" fill-rule="evenodd">
        <g id="000.-UI-kit" transform="translate(-1513.000000, -4528.000000)">
            <g id="Group-55" transform="translate(1383.000000, 4279.000000)">
                <g id="ic-24-aviapark" transform="translate(130.000000, 247.000000)">
                    <path d="M17.2840373,8.10250706 C19.5874767,8.39393305 20.6125705,10.1767304 19.6248065,10.6699266 C18.6364206,11.1625384 14.8263953,11.2028144 14.8263953,11.2028144 C11.4412957,12.5428856 9.58594836,13.3290193 9.26035327,13.5612156 C8.77196062,13.90951 8.45209086,13.9710267 7.73533973,13.9985399 C7.0185886,14.0260531 7.15967238,13.6591192 7.3456669,13.3726733 C7.46966324,13.1817093 8.45337976,12.390791 10.2968165,10.9999183 C10.2968165,10.9999183 8.98671083,11.130563 6.76987515,10.962772 C3.43603219,10.8802144 3.52793424,9.03390465 3.36288657,8.04422189 C3.1978389,7.05453913 3.01264882,6.2539925 3.00657052,5.87467484 C3.00049223,5.49535717 2.91377485,4.89163472 3.60573028,5.01677458 C4.29720933,5.14290818 4.89806801,6.24207853 4.89806801,6.24207853 C5.34810221,7.50179516 6.62281838,8.08001162 6.48995505,8.01974427 L10.9416457,7.93503896 C10.9416457,7.93503896 14.9799762,7.81049656 17.2840373,8.10250706 Z" id="Path" fill="url(#linearGradient-1)" opacity="0.400000006"></path>
                    <path d="M15.0828499,4.06833804 C16.7088071,4.26262203 17.4324027,5.45115358 16.7351575,5.7799511 C16.0374734,6.10835895 13.3480438,6.13520961 13.3480438,6.13520961 C10.9585617,7.02859038 9.64890473,7.55267953 9.4190729,7.70747706 C9.07432515,7.93967336 8.84853472,7.98068446 8.34259275,7.99902659 C7.83665077,8.01736871 7.93623933,7.77274613 8.06752957,7.58178217 C8.15505641,7.45447286 8.84944454,6.92719399 10.150694,5.99994556 C10.150694,5.99994556 9.22591353,6.08704201 7.66108834,5.97518136 C5.30778743,5.92014291 5.37265947,4.68926977 5.25615523,4.02948126 C5.13965099,3.36969275 5.00892858,2.835995 5.00463802,2.58311656 C5.00034745,2.33023812 4.93913519,1.92775648 5.42757432,2.01118305 C5.91567718,2.09527212 6.33981272,2.82805235 6.33981272,2.82805235 C6.65748391,3.66786344 7.55728356,4.05334108 7.46349768,4.01316285 L10.6058675,3.95669264 C10.6058675,3.95669264 13.4564538,3.87366438 15.0828499,4.06833804 Z" id="Path" fill="url(#linearGradient-2)" opacity="0.400000006"></path>
                    <path d="M19.6605238,13.0133057 C22.8295602,13.4254737 24.2398684,15.9469101 22.8809179,16.6444448 C21.5211119,17.3411528 16.2793378,17.3981157 16.2793378,17.3981157 C11.6221699,19.293398 9.06961166,20.4052384 8.62166295,20.7336371 C7.94973988,21.226235 7.50966799,21.3132389 6.52357283,21.3521512 C5.53747768,21.3910635 5.73157857,20.8721036 5.98746696,20.4669789 C6.15805922,20.1968957 7.51144124,19.0782884 10.047613,17.1111568 C10.047613,17.1111568 8.2451899,17.2959295 5.19530155,17.0586203 C0.608651816,16.9418578 0.735089237,14.3305949 0.508019196,12.9308721 C0.280949155,11.5311493 0.0261674968,10.3989245 0.0178050702,9.86244993 C0.00944264373,9.32597541 -0.10986178,8.47212191 0.842119826,8.64910904 C1.79344605,8.82750164 2.62009816,10.3820744 2.62009816,10.3820744 C3.23924826,12.16371 4.99298312,12.98149 4.8101918,12.896253 L10.9347591,12.7764531 C10.9347591,12.7764531 16.490632,12.6003109 19.6605238,13.0133057 Z" id="Path" fill="#0077FF" fill-rule="nonzero"></path>
                </g>
            </g>
        </g>
    </g>
</svg>