<?xml version="1.0" encoding="UTF-8"?>
<svg width="32px" height="32px" viewBox="0 0 32 32" version="1.1" xmlns="http://www.w3.org/2000/svg" xmlns:xlink="http://www.w3.org/1999/xlink">
    <!-- Generator: Sketch 55.2 (78181) - https://sketchapp.com -->
    <title>ic-32-avatar-w</title>
    <desc>Created with Sketch.</desc>
    <defs>
        <linearGradient x1="16.192627%" y1="87.0300293%" x2="73.9807129%" y2="50%" id="linearGradient-1">
            <stop stop-color="#0077FF" offset="0%"></stop>
            <stop stop-color="#7DE8FF" offset="100%"></stop>
        </linearGradient>
        <circle id="path-2" cx="16" cy="16" r="16"></circle>
    </defs>
    <g id="UI-Kit" stroke="none" stroke-width="1" fill="none" fill-rule="evenodd">
        <g id="000.-UI-kit" transform="translate(-1384.000000, -4363.000000)">
            <g id="Group-55" transform="translate(1383.000000, 4279.000000)">
                <g id="ic-32-avatar-w" transform="translate(1.000000, 84.000000)">
                    <mask id="mask-3" fill="white">
                        <use xlink:href="#path-2"></use>
                    </mask>
                    <use id="Mask" fill="url(#linearGradient-1)" opacity="0.400000006" xlink:href="#path-2"></use>
                    <path d="M19.5344696,15.2796618 C18.8064596,15.2796618 18.216291,14.6827004 18.216291,13.9463111 C18.216291,13.2099219 18.8064596,12.6129605 19.5344696,12.6129605 C20.2624795,12.6129605 20.8526482,13.2099219 20.8526482,13.9463111 C20.8526482,14.6827004 20.2624795,15.2796618 19.5344696,15.2796618 Z M16.4499316,16.6463463 L16.0478871,17.8930291 L14.0706192,17.2263538 C13.8907366,17.1633901 13.7465497,17.024836 13.6751656,16.8463489 C13.5959179,16.6706113 13.5959179,16.4687459 13.6751656,16.2930083 L14.9933442,13.626307 L16.1665232,14.2263148 L15.191071,16.2263408 L16.4499316,16.6463463 Z M17.2606114,18.6863728 L17.8537918,19.8730549 C16.8943265,20.3595141 15.835911,20.6128965 14.7626629,20.6130645 L14.2617551,20.6130645 L14.2617551,19.2797138 L14.7626629,19.2797138 C15.6292593,19.278148 16.483907,19.0751424 17.2606114,18.6863728 Z M11.6253978,15.2796618 C10.8973879,15.2796618 10.3072192,14.6827004 10.3072192,13.9463111 C10.3072192,13.2099219 10.8973879,12.6129605 11.6253978,12.6129605 C12.3534078,12.6129605 12.9435764,13.2099219 12.9435764,13.9463111 C12.9435764,14.6827004 12.3534078,15.2796618 11.6253978,15.2796618 Z M5.12018629,28.1798296 L5.43654916,28.1398291 L5.00155021,27.1131491 C4.13770625,25.0927905 4.08569778,22.8115562 4.85655056,20.7530663 C5.38079073,19.3428547 5.66384921,17.8526565 5.69359399,16.3463424 C4.85255125,15.3800281 4.8302013,13.9388198 5.64086684,12.9462981 L5.58154881,12.5796267 C5.21720317,10.3694006 5.50371765,8.09959126 6.40541045,6.05287513 C7.3041248,4.00998175 9.28376302,2.67157428 11.49358,2.61283039 L13.3060756,1.89282102 C14.7705471,1.15231107 16.4779275,1.07954286 17.9987915,1.69281842 C22.8839995,3.59404276 25.9772718,8.49000325 25.6310457,13.7729755 C25.5333522,15.5565754 25.8611269,17.3377847 26.5867252,18.9663764 C27.9234451,21.9477459 27.6753254,25.4112071 25.9276359,28.1664961 L26.0528629,28.1664961 C28.3619672,28.4658736 30.0888123,30.4584504 30.079967,32.8132232 L30.079967,41.28 L28.76172,41.28 L28.76172,32.8132232 C28.7478752,31.6226111 28.1072323,30.5298772 27.0810422,29.9465193 C20.6820921,36.25554 10.4777753,36.25554 4.07882517,29.9465193 C3.05263507,30.5298772 2.41199219,31.6226111 2.39814742,32.8132232 L2.39814742,41.28 L1.07996705,41.28 L1.07996705,32.8132232 C1.07854758,30.459048 2.81084399,28.4724196 5.12018629,28.1798296 Z M6.21427455,26.6131426 L6.79427314,27.9464932 L11.0453992,27.413153 C11.3782163,27.3724702 11.6278192,27.0855658 11.6254325,26.7464776 L11.6254325,24.1464438 C9.49268165,22.8285592 8.14656654,20.5250671 8.03336105,17.9996972 L7.98063391,17.2796878 L7.67086193,17.2796878 C7.43221727,17.2751088 7.19516647,17.239254 6.96563637,17.1730198 C6.8641948,18.5592486 6.5690647,19.9239435 6.08904758,21.2264058 C5.43368097,22.9696183 5.47862721,24.9030161 6.21427455,26.6131426 Z M21.8149186,17.9463632 L22.1312815,13.7929758 C21.0704845,13.2548562 20.0677019,12.6069397 19.139016,11.8596173 C17.6231106,10.706269 17.3990202,9.2329165 17.2210661,8.0462344 C17.1683389,7.69956322 17.1156118,7.37955906 17.0562938,7.1595562 C17.0562938,5.82495129 15.4657914,5.82495129 15.2042528,5.94620708 C14.7310122,6.3207945 14.398484,6.84767315 14.2617551,7.43955984 C14.2178857,7.6207655 14.1009608,7.77508785 13.9393806,7.86504316 C13.7778004,7.95499848 13.5863495,7.97235586 13.4115299,7.91289933 L12.1526693,7.48622711 C11.8231246,8.86624506 10.9663085,11.706282 8.98904056,12.9862987 L9.34494879,17.9463632 C9.49819958,21.3168194 12.2443073,23.9697174 15.5799337,23.9697174 C18.9155601,23.9697174 21.6616678,21.3168194 21.8149186,17.9463632 Z M7.71699818,13.2796358 L7.67086193,13.2796358 C6.94285198,13.2796358 6.3526833,13.8765972 6.3526833,14.6129865 C6.3526833,15.3493757 6.94285198,15.9463372 7.67086193,15.9463372 L7.8949523,15.9463372 L7.71699818,13.2796358 Z M24.5962755,27.7664909 C26.2917263,25.3531977 26.5928558,22.2107876 25.3871827,19.5130502 C24.5681946,17.689868 24.2016733,15.6919917 24.319458,13.6929745 C24.6217848,8.98583317 21.8634762,4.62653891 17.5110654,2.93283455 C16.3216186,2.45565719 14.9867609,2.51879705 13.8465288,3.10617014 L11.8692609,3.89951379 C11.7919172,3.9315482 11.7089653,3.94742243 11.6253978,3.94618107 C9.87811066,3.95103151 8.29745257,4.99603233 7.59177121,6.61288242 C6.83636446,8.33868905 6.57380131,10.2439742 6.8338185,12.112954 C7.10139274,12.0095131 7.38449173,11.9531435 7.67086193,11.9462851 L8.15199713,11.9462851 C10.3467645,10.6996022 10.9663085,6.55954839 10.9663085,6.51954787 C10.9946826,6.32296214 11.1082559,6.14941932 11.2760805,6.04620838 C11.441789,5.94223788 11.6445071,5.917827 11.8297155,5.97954085 L13.1940304,6.43954683 C13.4601136,5.75197808 13.9386393,5.16973487 14.5583453,4.77952524 C15.1390322,4.4648707 15.8250103,4.41634808 16.4433407,4.64619017 C18.1306093,5.21286421 18.334927,6.5862154 18.5128811,7.79289777 C18.6776535,8.88624532 18.8358349,9.9195921 19.9233323,10.7462695 C22.0785543,12.3729573 22.8299162,12.6129605 22.8958251,12.6129605 C23.05438,12.6288197 23.2018882,12.7022385 23.3110514,12.8196298 C23.4380582,12.9557627 23.5026367,13.1396316 23.4890055,13.3263031 L23.1265063,17.9930304 C23.0143008,20.5204559 21.6682102,22.8264046 19.5344696,24.1464438 L19.5344696,26.7664779 C19.5320482,27.1055661 19.7816511,27.3924704 20.1144682,27.4331532 L24.444685,27.979827 L24.5962755,27.7664909 Z M25.5980913,29.466513 L19.9496959,28.7531704 C18.9538625,28.6280116 18.2086332,27.7681559 18.216291,26.7531444 L18.216291,24.7531184 C16.5173007,25.4022549 14.6425667,25.4022549 12.9435764,24.7531184 L12.9435764,26.7531444 C12.9512342,27.7681559 12.2060049,28.6280116 11.2101715,28.7531704 L5.56177613,29.466513 C11.2886212,34.5674523 19.8712462,34.5674523 25.5980913,29.466513 Z" id="Shape" stroke="#0077FF" stroke-width="0.15" fill="#0077FF" fill-rule="nonzero" mask="url(#mask-3)" transform="translate(15.579984, 21.280000) scale(-1, 1) translate(-15.579984, -21.280000) "></path>
                </g>
            </g>
        </g>
    </g>
</svg>