<?xml version="1.0" encoding="UTF-8"?>
<svg width="25px" height="23px" viewBox="0 0 25 23" version="1.1" xmlns="http://www.w3.org/2000/svg" xmlns:xlink="http://www.w3.org/1999/xlink">
    <!-- Generator: Sketch 55.2 (78181) - https://sketchapp.com -->
    <title>ic-airports</title>
    <desc>Created with Sketch.</desc>
    <defs>
        <linearGradient x1="52.7256062%" y1="4.07366071%" x2="35.6367778%" y2="100%" id="linearGradient-1">
            <stop stop-color="#0077FF" offset="0%"></stop>
            <stop stop-color="#7DE8FF" offset="100%"></stop>
        </linearGradient>
    </defs>
    <g id="UI-Kit" stroke="none" stroke-width="1" fill="none" fill-rule="evenodd">
        <g id="000.-UI-kit" transform="translate(-2103.000000, -2614.000000)">
            <g id="Group-70" transform="translate(1700.000000, 1478.000000)">
                <g id="Group-12" transform="translate(374.000000, 44.000000)">
                    <g id="ul-li" transform="translate(0.000000, 698.000000)">
                        <g id="01">
                            <g id="1.1-1.5" transform="translate(0.000000, 48.000000)">
                                <g id="1.4" transform="translate(29.000000, 336.000000)">
                                    <g id="ic-airports" transform="translate(0.000000, 10.000000)">
                                        <path d="M16.1428571,5 L14.8571429,2 L14,2 L14,0 L23,0 L23,2 L22.1428571,2 L20.8571429,5 L22,5 L22,7 L20.1111111,7 L21,23 L16,23 L16.8888889,7 L15,7 L15,5 L16.1428571,5 Z M18,2 L18,5 L19,5 L19,2 L18,2 Z" id="Combined-Shape" fill="url(#linearGradient-1)" opacity="0.400000006"></path>
                                        <path d="M9,20.1916667 L12,20.1916667 L12,19.1916667 L9,19.1916667 L9,20.1916667 Z M9,21.1916667 L9,23 L7,23 L7,15.700365 L7.63491247,15.4513797 C9.2491726,14.8183366 10.872689,14.5 12.5,14.5 C14.127311,14.5 15.7508274,14.8183366 17.3650875,15.4513797 L18,15.700365 L18,23 L16,23 L16,21.1916667 L13,21.1916667 L13,23 L12,23 L12,21.1916667 L9,21.1916667 Z M16,20.1916667 L16,19.1916667 L13,19.1916667 L13,20.1916667 L16,20.1916667 Z M9,18.1916667 L12,18.1916667 L12,16.5119345 C11.0030437,16.5595222 10.0037397,16.7495012 9,17.0832592 L9,18.1916667 Z M16,18.1916667 L16,17.0832592 C14.9962603,16.7495012 13.9969563,16.5595222 13,16.5119345 L13,18.1916667 L16,18.1916667 Z M19.6244857,14.3833333 C17.5411898,13.4615625 15.169889,13 12.5,13 C9.83011102,13 7.45881019,13.4615625 5.37551425,14.3833333 L5.5,14.3833333 L5.5,23 L3.5,23 L3.5,15.3863947 C3.02656798,15.6873907 2.57074326,16.0168235 2.13236304,16.3746722 L0.867636956,14.8253278 C3.99387424,12.2733878 7.88478142,11 12.5,11 C17.1152186,11 21.0061258,12.2733878 24.132363,14.8253278 L22.867637,16.3746722 C22.4292567,16.0168235 21.973432,15.6873907 21.5,15.3863947 L21.5,23 L19.5,23 L19.5,14.3833333 L19.6244857,14.3833333 Z" id="Combined-Shape" fill="#0077FF" fill-rule="nonzero"></path>
                                    </g>
                                </g>
                            </g>
                        </g>
                    </g>
                </g>
            </g>
        </g>
    </g>
</svg>