<?xml version="1.0" encoding="UTF-8"?>
<svg width="24px" height="22px" viewBox="0 0 24 22" version="1.1" xmlns="http://www.w3.org/2000/svg" xmlns:xlink="http://www.w3.org/1999/xlink">
    <!-- Generator: Sketch 55.2 (78181) - https://sketchapp.com -->
    <title>ic-devices</title>
    <desc>Created with Sketch.</desc>
    <defs>
        <linearGradient x1="100%" y1="28.6767932%" x2="0%" y2="56.1113609%" id="linearGradient-1">
            <stop stop-color="#0077FF" offset="0%"></stop>
            <stop stop-color="#7DE8FF" offset="100%"></stop>
        </linearGradient>
        <linearGradient x1="22.281901%" y1="75.4937066%" x2="116.617839%" y2="-19.6289062%" id="linearGradient-2">
            <stop stop-color="#0077FF" offset="0%"></stop>
            <stop stop-color="#7DE8FF" offset="100%"></stop>
        </linearGradient>
    </defs>
    <g id="UI-Kit" stroke="none" stroke-width="1" fill="none" fill-rule="evenodd">
        <g id="000.-UI-kit" transform="translate(-2104.000000, -2127.000000)">
            <g id="Group-70" transform="translate(1700.000000, 1478.000000)">
                <g id="Group-12" transform="translate(374.000000, 44.000000)">
                    <g id="ul-li" transform="translate(0.000000, 450.000000)">
                        <g id="01">
                            <g id="1.1-1.5" transform="translate(0.000000, 48.000000)">
                                <g id="1.3" transform="translate(30.000000, 96.000000)">
                                    <g id="ic-devices" transform="translate(0.000000, 10.000000)">
                                        <path d="M7,1 L14,1 C15.6568542,1 17,2.34314575 17,4 L17,20 C17,21.6568542 15.6568542,23 14,23 L7,23 C5.34314575,23 4,21.6568542 4,20 L4,4 C4,2.34314575 5.34314575,1 7,1 Z M7,3 C6.44771525,3 6,3.44771525 6,4 L6,20 C6,20.5522847 6.44771525,21 7,21 L14,21 C14.5522847,21 15,20.5522847 15,20 L15,4 C15,3.44771525 14.5522847,3 14,3 L7,3 Z M10.5,20 C9.67157288,20 9,19.3284271 9,18.5 C9,17.6715729 9.67157288,17 10.5,17 C11.3284271,17 12,17.6715729 12,18.5 C12,19.3284271 11.3284271,20 10.5,20 Z" id="Combined-Shape" fill="#0077FF" fill-rule="nonzero"></path>
                                        <polygon id="Polygon" fill="url(#linearGradient-1)" opacity="0.400000006" transform="translate(16.562984, 9.655003) rotate(27.000000) translate(-16.562984, -9.655003) " points="16.562984 2.65500298 23.2203796 7.49188402 20.6774807 15.3181219 12.4484872 15.3181219 9.90558836 7.49188402"></polygon>
                                        <rect id="Rectangle" fill="url(#linearGradient-2)" opacity="0.400000006" transform="translate(4.811518, 17.087157) rotate(24.000000) translate(-4.811518, -17.087157) " x="1.81151762" y="14.0871572" width="6" height="6"></rect>
                                    </g>
                                </g>
                            </g>
                        </g>
                    </g>
                </g>
            </g>
        </g>
    </g>
</svg>