<?xml version="1.0" encoding="UTF-8"?>
<svg width="32px" height="32px" viewBox="0 0 32 32" version="1.1" xmlns="http://www.w3.org/2000/svg" xmlns:xlink="http://www.w3.org/1999/xlink">
    <!-- Generator: Sketch 55.2 (78181) - https://sketchapp.com -->
    <title>ic-men</title>
    <desc>Created with Sketch.</desc>
    <defs>
        <linearGradient x1="16.192627%" y1="87.0300293%" x2="73.9807129%" y2="50%" id="linearGradient-1">
            <stop stop-color="#0077FF" offset="0%"></stop>
            <stop stop-color="#7DE8FF" offset="100%"></stop>
        </linearGradient>
        <circle id="path-2" cx="16" cy="16" r="16"></circle>
    </defs>
    <g id="UI-Kit" stroke="none" stroke-width="1" fill="none" fill-rule="evenodd">
        <g id="000.-UI-kit" transform="translate(-2381.000000, -2234.000000)">
            <g id="Group-70" transform="translate(1700.000000, 1478.000000)">
                <g id="menu" transform="translate(664.000000, 44.000000)">
                    <g id="ic-men" transform="translate(17.000000, 712.000000)">
                        <mask id="mask-3" fill="white">
                            <use xlink:href="#path-2"></use>
                        </mask>
                        <use id="Mask" fill="url(#linearGradient-1)" opacity="0.400000006" xlink:href="#path-2"></use>
                        <path d="M13.771136,22.4994347 C13.5268875,22.5088429 13.2935272,22.4003377 13.1470541,22.2092565 C13.0091075,22.0283583 12.9651746,21.795103 13.0281813,21.5781189 L14.5140907,16.5 L16,16.8917406 L14.7592657,21.0485436 L16,21.0485436 L16,22.4994347 L13.771136,22.4994347 Z M13,24.8827493 L13.8718331,24.8827493 C15.0236351,24.8817062 16.1279115,24.3843396 16.9418778,23.5 L18,24.648248 C16.9002236,25.8278746 15.4181558,26.4926786 13.8718331,26.5 L13,26.5 L13,24.8827493 Z M10.5,18.5 C9.67157288,18.5 9,17.8284271 9,17 C9,16.1715729 9.67157288,15.5 10.5,15.5 C11.3284271,15.5 12,16.1715729 12,17 C12,17.8284271 11.3284271,18.5 10.5,18.5 Z M19.5,18.5 C18.6715729,18.5 18,17.8284271 18,17 C18,16.1715729 18.6715729,15.5 19.5,15.5 C20.3284271,15.5 21,16.1715729 21,17 C21,17.8284271 20.3284271,18.5 19.5,18.5 Z M25.32,33.849219 C28.571381,34.285854 30.9996425,37.07792 31,40.3802018 L31,48.4341044 L29.5454545,48.4341044 L29.5454545,40.3802018 C29.5425618,37.8150102 27.6563467,35.6470458 25.1309091,35.3062432 L21.32,34.7937221 L20.0690909,39.8237504 C20.0116235,40.0547638 19.8461442,40.2432065 19.6254545,40.3289497 C19.5424829,40.3635502 19.4534413,40.3809805 19.3636364,40.3802018 C19.2185871,40.3805279 19.0767544,40.3371814 18.9563636,40.2557324 L17.56,39.3258728 L17.1818182,40.4680626 L17.9090909,48.3682089 L16.4545455,48.5 L15.7927273,41.1123748 L14.2072727,41.1123748 L13.5454545,48.5 L12.0909091,48.3682089 L12.8181818,40.4680626 L12.4327273,39.3258728 L11.0363636,40.2557324 C10.9180315,40.3357974 10.7789334,40.379081 10.6363636,40.3802018 C10.5392428,40.3840608 10.4424528,40.3665712 10.3527273,40.3289497 C10.1320376,40.2432065 9.96655836,40.0547638 9.90909091,39.8237504 L8.68,34.7937221 L4.86909091,35.3062432 C2.3436533,35.6470458 0.457438186,37.8150102 0.454545455,40.3802018 L0.454545455,48.4341044 L-1,48.4341044 L-1,40.3802018 C-0.985109666,37.0890681 1.43955726,34.3136373 4.68,33.8785059 L9.90909091,33.146333 L9.90909091,28.517832 C9.07241464,27.8588951 8.37301366,27.0403321 7.85090909,26.108983 C6.93498488,24.4498879 6.395981,22.6069274 6.27272727,20.7128682 C4.99918185,20.3710482 4.11303612,19.2099293 4.11303612,17.8830197 C4.11303612,16.5561102 4.99918185,15.3949913 6.27272727,15.0531712 L6.27272727,11.5680279 C4.19469689,9.23277615 4.28721408,5.67095286 6.48363636,3.44822978 L7.21090909,2.71605682 C7.36544774,2.55951132 7.58188467,2.48149944 7.8,2.50372666 C8.01713863,2.52771099 8.21206921,2.64868332 8.33090909,2.83320449 L9.57454545,4.70024555 L17.7927273,4.70024555 C19.2889373,4.69323589 20.6581168,5.54585741 21.32,6.89676443 C22.3552638,7.02533901 23.292648,7.57630174 23.9127803,8.42071298 C24.5329126,9.26512421 24.7813674,10.3288749 24.6,11.3630195 L23.9818182,15.1263885 C25.178948,15.5633278 25.9546756,16.7333089 25.8963251,18.0139191 C25.8379747,19.2945292 24.9591094,20.3881002 23.7272727,20.7128682 C23.5950638,22.6092075 23.0460843,24.4523026 22.12,26.108983 C21.6064582,27.0376825 20.9171028,27.8560555 20.0909091,28.517832 L20.0909091,33.117046 L25.32,33.849219 Z M24.65,17.95 C24.6457131,17.3306202 24.2650891,16.7596842 23.65,16.45 L23.65,19.45 C24.2650891,19.1403158 24.6457131,18.5693798 24.65,17.95 Z M7.28931446,4.59714726 C5.64028131,6.16898678 5.56352262,8.68974504 7.114147,10.349653 L19.9086702,10.349653 C20.1528238,10.350854 20.3801747,10.4680442 20.5144577,10.6619121 L22.5069875,13.5 L22.9668021,10.883963 C23.0829686,10.2326488 22.8910016,9.5657837 22.4421739,9.06148169 C21.9933462,8.55717968 21.3333755,8.26680928 20.6385346,8.26792598 C20.3247543,8.26869606 20.0455724,8.07870512 19.9451634,7.79606785 C19.6132692,6.83372459 18.6675274,6.18387052 17.6022987,6.18619892 L8.96070397,6.18619892 C8.7192976,6.18811112 8.49251454,6.07640902 8.35491651,5.88781804 L7.38419684,4.5 L7.28931446,4.59714726 Z M5.15,18 C5.15428692,18.6193798 5.53491093,19.1903158 6.15,19.5 L6.15,16.5 C5.53491093,16.8096842 5.15428692,17.3806202 5.15,18 Z M8.9,25.3550622 L8.84,25.3550622 C10.0574472,27.5123363 12.3653887,28.85 14.87,28.85 C17.3746113,28.85 19.6825528,27.5123363 20.9,25.3550622 C21.8723696,23.6449813 22.3884804,21.7196491 22.4,19.7593687 L22.4,15.7677247 L19.745,11.85 L7.4,11.85 L7.4,19.7593687 C7.41151956,21.7196491 7.92763045,23.6449813 8.9,25.3550622 Z M15,30.2973641 C13.7836984,30.295056 12.5849277,30.0242112 11.5,29.5065898 L11.5,33.6153213 L15,35.5 L18.5,33.6153213 L18.5,29.5 C17.4156658,30.019905 16.216865,30.2930138 15,30.2973641 Z" id="Combined-Shape" stroke="#0077FF" stroke-width="0.15" fill="#0077FF" fill-rule="nonzero" mask="url(#mask-3)" transform="translate(15.000000, 25.500000) scale(-1, 1) translate(-15.000000, -25.500000) "></path>
                    </g>
                </g>
            </g>
        </g>
    </g>
</svg>