<?xml version="1.0" encoding="UTF-8"?>
<svg width="21px" height="21px" viewBox="0 0 21 21" version="1.1" xmlns="http://www.w3.org/2000/svg" xmlns:xlink="http://www.w3.org/1999/xlink">
    <!-- Generator: Sketch 55.2 (78181) - https://sketchapp.com -->
    <title>ic-route</title>
    <desc>Created with Sketch.</desc>
    <defs>
        <linearGradient x1="46.9383555%" y1="78.4586589%" x2="55.3606018%" y2="16.780599%" id="linearGradient-1">
            <stop stop-color="#0077FF" offset="0%"></stop>
            <stop stop-color="#7DE8FF" offset="100%"></stop>
        </linearGradient>
    </defs>
    <g id="UI-Kit" stroke="none" stroke-width="1" fill="none" fill-rule="evenodd">
        <g id="000.-UI-kit" transform="translate(-2106.000000, -2816.000000)">
            <g id="Group-70" transform="translate(1700.000000, 1478.000000)">
                <g id="Group-12" transform="translate(374.000000, 44.000000)">
                    <g id="ul-li" transform="translate(0.000000, 1138.000000)">
                        <g id="01">
                            <g id="1.1-1.5" transform="translate(0.000000, 48.000000)">
                                <g id="1.3" transform="translate(30.000000, 96.000000)">
                                    <g id="ic-route" transform="translate(0.000000, 10.000000)">
                                        <path d="M12,3 L12,2 L14,2 L14,3 L21.3636364,3 L23,6.5 L21.3636364,10 L14,10 L14,11 L22,11 L20.3636364,14.5 L22,18 L14,18 L14,23 L12,23 L12,18 L5.63636364,18 L4,14.5 L5.63636364,11 L12,11 L12,10 L5,10 L6.63636364,6.5 L5,3 L12,3 Z M14,8 L20.0909091,8 L20.7922078,6.5 L20.0909091,5 L8.14285714,5 L8.84415584,6.5 L8.14285714,8 L12,8 L14,8 Z M18.8571429,13 L6.90909091,13 L6.20779221,14.5 L6.90909091,16 L18.8571429,16 L18.1558442,14.5 L18.8571429,13 Z" id="Combined-Shape" fill="#0077FF" fill-rule="nonzero"></path>
                                        <ellipse id="Oval" fill="url(#linearGradient-1)" opacity="0.400000006" transform="translate(12.227870, 13.934621) rotate(54.000000) translate(-12.227870, -13.934621) " cx="12.2278704" cy="13.9346211" rx="4.5" ry="11"></ellipse>
                                    </g>
                                </g>
                            </g>
                        </g>
                    </g>
                </g>
            </g>
        </g>
    </g>
</svg>