<?xml version="1.0" encoding="UTF-8"?>
<svg width="24px" height="19px" viewBox="0 0 24 19" version="1.1" xmlns="http://www.w3.org/2000/svg" xmlns:xlink="http://www.w3.org/1999/xlink">
    <!-- Generator: Sketch 55.2 (78181) - https://sketchapp.com -->
    <title>ic-type-airplanes</title>
    <desc>Created with Sketch.</desc>
    <defs>
        <linearGradient x1="53.2396166%" y1="0%" x2="43.0579778%" y2="50%" id="linearGradient-1">
            <stop stop-color="#00AFFF" offset="0%"></stop>
            <stop stop-color="#0077FF" offset="100%"></stop>
        </linearGradient>
        <linearGradient x1="17.5457479%" y1="50%" x2="90.0446859%" y2="44.6838005%" id="linearGradient-2">
            <stop stop-color="#00AFFF" offset="0%"></stop>
            <stop stop-color="#0077FF" offset="100%"></stop>
        </linearGradient>
        <linearGradient x1="38.2446813%" y1="54.4768183%" x2="100%" y2="50%" id="linearGradient-3">
            <stop stop-color="#00AFFF" offset="0%"></stop>
            <stop stop-color="#0077FF" offset="100%"></stop>
        </linearGradient>
    </defs>
    <g id="UI-Kit" stroke="none" stroke-width="1" fill="none" fill-rule="evenodd">
        <g id="000.-UI-kit" transform="translate(-2104.000000, -2571.000000)">
            <g id="Group-70" transform="translate(1700.000000, 1478.000000)">
                <g id="Group-12" transform="translate(374.000000, 44.000000)">
                    <g id="ul-li" transform="translate(0.000000, 698.000000)">
                        <g id="01">
                            <g id="1.1-1.5" transform="translate(0.000000, 48.000000)">
                                <g id="1.4" transform="translate(30.000000, 288.000000)">
                                    <g id="ic-type-airplanes" transform="translate(0.000000, 10.000000)">
                                        <path d="M18.7471474,7.54470571 C21.583369,6.64794571 23.7655075,8.21646571 22.8932804,9.33678571 C22.0200061,10.4567457 17.6193906,12.56172 17.6193906,12.56172 C14.9581723,18.68292 13.5031806,21.9696 13.2544155,22.42176 C12.8812679,23.1 12.5441671,23.345918 11.7274072,23.76564 C10.9106473,24.185362 10.870234,23.6724489 10.9267483,23.2310889 C10.9644245,22.9368489 11.4048842,20.1150683 12.2481272,14.7657471 C12.2481272,14.7657471 10.7999386,15.6285736 8.13305664,16.6257324 C4.21688135,18.3274131 3.29611045,16.0802306 2.55375591,14.9913732 C1.81140137,13.9025157 1.15091667,13.0496518 0.932772627,12.6014518 C0.714628583,12.1532518 0.277991463,11.4814918 1.15091667,11.2568518 C2.02384188,11.0336518 3.33305518,12.0175318 3.33305518,12.0175318 C4.55652045,13.2739318 6.35810227,13.2739318 6.17032387,13.2739318 L11.2911191,10.76964 C11.2911191,10.76964 15.9098787,8.44110571 18.7471474,7.54470571 Z M4.59483944,7.12032 C3.94005827,6.6714 4.15855135,6.67104 4.15855135,6.67104 C4.15855135,6.67104 4.81333251,6.22464 5.90405273,6 C6.99582005,5.77536 12.7274072,8.2004 12.9452022,8.2004 C13.1636953,8.2004 9.2360554,9.9932 9.2360554,9.9932 L4.59483944,7.12032 Z" id="Combined-Shape" fill="#0077FF" fill-rule="nonzero"></path>
                                        <path d="M5.71401045,16.2254017 C5.07574183,15.7143835 4.86539429,16.0722793 5.08296783,17.299089 C5.30054136,18.5258987 5.5108889,20.0751372 5.71401045,21.9468044 C7.19078748,21.092862 7.929176,20.3022341 7.929176,19.5749208 C7.929176,18.8476074 7.929176,17.7871867 7.929176,16.3936587 L5.71401045,16.2254017 Z" id="Path-8" fill="url(#linearGradient-1)" opacity="0.400000006"></path>
                                        <path d="M19.5587805,20.0716661 C19.9238985,20.0681376 20.2284248,19.1538237 20.2389589,18.0294717 C20.2494929,16.9051196 19.9620459,15.9964988 19.5969278,16 C19.2318098,16.0035215 11.0105442,17.2915545 11,18.4159065 C10.989476,19.5402585 19.1936624,20.0751603 19.5587805,20.0716661 Z" id="Oval" fill="url(#linearGradient-2)" opacity="0.400000006" transform="translate(15.619620, 18.035833) rotate(-18.000000) translate(-15.619620, -18.035833) "></path>
                                        <path d="M13.4844584,9 C13.7610858,8.99740018 13.9918064,8.32373449 13.9997875,7.49531292 C14.0077685,6.66689136 13.7899876,5.9974203 13.5133603,6 C13.2367329,6.00259464 7.00798871,6.95161618 7,7.78003775 C6.99202665,8.60845932 13.207831,9.00257452 13.4844584,9 Z" id="Oval" fill="url(#linearGradient-3)" opacity="0.400000006" transform="translate(10.500000, 7.500000) rotate(-18.000000) translate(-10.500000, -7.500000) "></path>
                                    </g>
                                </g>
                            </g>
                        </g>
                    </g>
                </g>
            </g>
        </g>
    </g>
</svg>